<svg xmlns="http://www.w3.org/2000/svg" viewBox="0 0 1600 1000" width="1600" height="1000" preserveAspectRatio="xMidYMid slice">
<defs>
<linearGradient id="bg40" x1="0" y1="0" x2="1" y2="1"><stop offset="0" stop-color="#17181d"/><stop offset="1" stop-color="#08080a"/></linearGradient>
<radialGradient id="gl40" cx="0.7" cy="0.3" r="0.6"><stop offset="0" stop-color="#3b5bdb" stop-opacity=".38"/><stop offset=".55" stop-color="#1d4ed8" stop-opacity=".08"/><stop offset="1" stop-color="#1d4ed8" stop-opacity="0"/></radialGradient>
</defs>
<rect width="1600" height="1000" fill="url(#bg40)"/>
<rect width="1600" height="1000" fill="url(#gl40)"/>
<line x1="0" y1="0" x2="0" y2="1000" stroke="#fff" stroke-opacity=".06"/><line x1="60" y1="0" x2="60" y2="1000" stroke="#fff" stroke-opacity=".06"/><line x1="120" y1="0" x2="120" y2="1000" stroke="#fff" stroke-opacity=".06"/><line x1="180" y1="0" x2="180" y2="1000" stroke="#fff" stroke-opacity=".06"/><line x1="240" y1="0" x2="240" y2="1000" stroke="#fff" stroke-opacity=".06"/><line x1="300" y1="0" x2="300" y2="1000" stroke="#fff" stroke-opacity=".06"/><line x1="360" y1="0" x2="360" y2="1000" stroke="#fff" stroke-opacity=".06"/><line x1="420" y1="0" x2="420" y2="1000" stroke="#fff" stroke-opacity=".06"/><line x1="480" y1="0" x2="480" y2="1000" stroke="#fff" stroke-opacity=".06"/><line x1="540" y1="0" x2="540" y2="1000" stroke="#fff" stroke-opacity=".06"/><line x1="600" y1="0" x2="600" y2="1000" stroke="#fff" stroke-opacity=".06"/><line x1="660" y1="0" x2="660" y2="1000" stroke="#fff" stroke-opacity=".06"/><line x1="720" y1="0" x2="720" y2="1000" stroke="#fff" stroke-opacity=".06"/><line x1="780" y1="0" x2="780" y2="1000" stroke="#fff" stroke-opacity=".06"/><line x1="840" y1="0" x2="840" y2="1000" stroke="#fff" stroke-opacity=".06"/><line x1="900" y1="0" x2="900" y2="1000" stroke="#fff" stroke-opacity=".06"/><line x1="960" y1="0" x2="960" y2="1000" stroke="#fff" stroke-opacity=".06"/><line x1="1020" y1="0" x2="1020" y2="1000" stroke="#fff" stroke-opacity=".06"/><line x1="1080" y1="0" x2="1080" y2="1000" stroke="#fff" stroke-opacity=".06"/><line x1="1140" y1="0" x2="1140" y2="1000" stroke="#fff" stroke-opacity=".06"/><line x1="1200" y1="0" x2="1200" y2="1000" stroke="#fff" stroke-opacity=".06"/><line x1="1260" y1="0" x2="1260" y2="1000" stroke="#fff" stroke-opacity=".06"/><line x1="1320" y1="0" x2="1320" y2="1000" stroke="#fff" stroke-opacity=".06"/><line x1="1380" y1="0" x2="1380" y2="1000" stroke="#fff" stroke-opacity=".06"/><line x1="1440" y1="0" x2="1440" y2="1000" stroke="#fff" stroke-opacity=".06"/><line x1="1500" y1="0" x2="1500" y2="1000" stroke="#fff" stroke-opacity=".06"/><line x1="1560" y1="0" x2="1560" y2="1000" stroke="#fff" stroke-opacity=".06"/><line x1="0" y1="0" x2="1600" y2="0" stroke="#fff" stroke-opacity=".06"/><line x1="0" y1="60" x2="1600" y2="60" stroke="#fff" stroke-opacity=".06"/><line x1="0" y1="120" x2="1600" y2="120" stroke="#fff" stroke-opacity=".06"/><line x1="0" y1="180" x2="1600" y2="180" stroke="#fff" stroke-opacity=".06"/><line x1="0" y1="240" x2="1600" y2="240" stroke="#fff" stroke-opacity=".06"/><line x1="0" y1="300" x2="1600" y2="300" stroke="#fff" stroke-opacity=".06"/><line x1="0" y1="360" x2="1600" y2="360" stroke="#fff" stroke-opacity=".06"/><line x1="0" y1="420" x2="1600" y2="420" stroke="#fff" stroke-opacity=".06"/><line x1="0" y1="480" x2="1600" y2="480" stroke="#fff" stroke-opacity=".06"/><line x1="0" y1="540" x2="1600" y2="540" stroke="#fff" stroke-opacity=".06"/><line x1="0" y1="600" x2="1600" y2="600" stroke="#fff" stroke-opacity=".06"/><line x1="0" y1="660" x2="1600" y2="660" stroke="#fff" stroke-opacity=".06"/><line x1="0" y1="720" x2="1600" y2="720" stroke="#fff" stroke-opacity=".06"/><line x1="0" y1="780" x2="1600" y2="780" stroke="#fff" stroke-opacity=".06"/><line x1="0" y1="840" x2="1600" y2="840" stroke="#fff" stroke-opacity=".06"/><line x1="0" y1="900" x2="1600" y2="900" stroke="#fff" stroke-opacity=".06"/><line x1="0" y1="960" x2="1600" y2="960" stroke="#fff" stroke-opacity=".06"/><path d="M0.0 696.3 L60.0 690.9 L120.0 675.1 L180.0 673.4 L240.0 672.9 L300.0 638.8 L360.0 601.6 L420.0 613.9 L480.0 591.4 L540.0 567.5 L600.0 589.2 L660.0 579.5 L720.0 591.6 L780.0 582.2 L840.0 582.6 L900.0 553.6 L960.0 553.7 L1020.0 567.8 L1080.0 561.2 L1140.0 567.6 L1200.0 569.9 L1260.0 535.8 L1320.0 543.3 L1380.0 540.7 L1440.0 520.8 L1500.0 484.7 L1560.0 498.6" fill="none" stroke="#fff" stroke-opacity=".7" stroke-width="1.5"/><circle cx="1080.0" cy="561.2" r="16" fill="none" stroke="#7c9bff" stroke-width="1.5"/><circle cx="1080.0" cy="561.2" r="4" fill="#7c9bff"/>
</svg>